<svg width="88" height="24" viewBox="0 0 88 24" fill="none" xmlns="http://www.w3.org/2000/svg">
<path d="M5.11963 8.56014C5.11963 8.38014 5.18963 8.21014 5.32963 8.08014C5.59963 7.84014 6.00963 7.86014 6.24963 8.12014L11.9899 14.4893L17.5399 8.08012C17.7799 7.81012 18.1899 7.80012 18.4599 8.04012C18.7199 8.28012 18.7399 8.69012 18.4999 8.96012L12.5099 15.8593C12.2299 16.1693 11.7499 16.1693 11.4699 15.8593L5.28963 9.00014C5.16963 8.87014 5.11963 8.72014 5.11963 8.56014Z" fill="#505050"/>
<path d="M45.1792 8.24908C45.048 8.12583 44.972 7.95842 44.9731 7.76737C44.9831 7.40626 45.2784 7.12113 45.6322 7.12423L47.7846 7.10802L47.795 7.09682C46.7462 6.28392 45.4296 5.80006 44 5.80006C40.5758 5.80006 37.8 8.57589 37.8 12.0001C37.8 12.1843 37.808 12.3666 37.8238 12.5467C37.8529 12.8801 37.6599 13.2021 37.3393 13.2983C36.9696 13.4092 36.582 13.1786 36.5416 12.7948C36.5141 12.5337 36.5 12.2685 36.5 12.0001C36.5 7.85792 39.8579 4.50006 44 4.50006C45.7642 4.50006 47.3862 5.10922 48.667 6.12868L48.4805 4.09227C48.4481 3.73248 48.7215 3.42681 49.0813 3.39435C49.4342 3.36918 49.7467 3.63532 49.7792 3.99511L50.0669 7.64683C50.1012 8.06315 49.7725 8.413 49.3549 8.40482L45.6163 8.42644C45.4394 8.42489 45.2958 8.35863 45.1792 8.24908Z" fill="#505050"/>
<path d="M42.2902 15.2936C42.4214 15.4169 42.4974 15.5843 42.4963 15.7753C42.4864 16.1365 42.1911 16.4216 41.8372 16.4185L39.6849 16.4347L39.6764 16.4438C40.7933 17.5306 42.3185 18.2001 44 18.2001C47.4242 18.2001 50.2 15.4242 50.2 12.0001C50.2 11.618 50.1654 11.244 50.0993 10.8811C50.0377 10.543 50.2109 10.1961 50.5338 10.0787C50.8872 9.95017 51.2786 10.1451 51.3527 10.5137C51.4493 10.9942 51.5 11.4912 51.5 12.0001C51.5 16.1422 48.1421 19.5001 44 19.5001C41.9818 19.5001 40.1498 18.7029 38.8017 17.4063L38.9889 19.4504C39.0214 19.8102 38.748 20.1159 38.3882 20.1484C38.0352 20.1735 37.7227 19.9074 37.6903 19.5476L37.4025 15.8959C37.3683 15.4796 37.6969 15.1297 38.1146 15.1379L41.8532 15.1163C42.0301 15.1178 42.1736 15.1841 42.2902 15.2936Z" fill="#505050"/>
<path d="M70.4094 5.49006C70.1556 5.23622 69.744 5.23622 69.4902 5.49006C69.2363 5.7439 69.2363 6.15546 69.4902 6.4093L75.0808 11.9999L69.5906 17.4901C69.3368 17.7439 69.3368 18.1555 69.5906 18.4093C69.8445 18.6631 70.256 18.6631 70.5099 18.4093L76 12.9192L81.4902 18.4093C81.744 18.6631 82.1556 18.6631 82.4094 18.4093C82.6633 18.1555 82.6633 17.7439 82.4094 17.4901L76.9193 11.9999L82.5099 6.4093C82.7637 6.15546 82.7637 5.7439 82.5099 5.49006C82.256 5.23622 81.8445 5.23622 81.5906 5.49006L76 11.0807L70.4094 5.49006Z" fill="#505050"/>
</svg>
